<svg height="200px" width="200px" version="1.1" id="_x32_" xmlns="http://www.w3.org/2000/svg" xmlns:xlink="http://www.w3.org/1999/xlink" viewBox="-51.2 -51.2 614.40 614.40" xml:space="preserve" fill="#000000"><g id="SVGRepo_bgCarrier" stroke-width="0"><rect x="-51.2" y="-51.2" width="614.40" height="614.40" rx="307.2" fill="#4719b3" strokewidth="0"></rect></g><g id="SVGRepo_tracerCarrier" stroke-linecap="round" stroke-linejoin="round"></g><g id="SVGRepo_iconCarrier"> <style type="text/css"> .st0{fill:#fffafa;} </style> <g> <path class="st0" d="M512,316.391c0-13.751-3.925-26.693-10.699-37.604c-4.458-7.17-10.148-13.466-16.775-18.632 c6.379-8.971,10.709-19.616,12.152-31.262c0.359-2.849,0.524-5.69,0.524-8.502c0-17.079-6.37-33.017-17.042-45.178v0.01 c-7.721-8.824-17.796-15.7-29.341-19.644c2.436-7.409,3.732-15.13,3.742-22.915v-0.046v-0.01 c-0.01-8.199-1.434-16.435-4.375-24.294c-2.933-7.869-7.381-15.36-13.338-22.015c-7.022-7.868-15.461-13.852-24.57-17.841 c-8.998-3.944-18.659-5.956-28.348-6.002c-0.01,0-0.12,0-0.285,0v-0.01c-0.027,0.01-0.276-0.009-0.726,0.019 c-1.14,0.008-2.279,0.046-3.419,0.101c-3.328-12.042-9.735-22.833-18.31-31.399c-6.444-6.453-14.138-11.674-22.686-15.296 c-8.374-3.548-17.593-5.524-27.189-5.607c-0.009,0-0.184,0-0.487-0.01h-0.019h-0.092h-0.01h-0.009h-0.01c-0.008,0-0.018,0-0.018,0 c-0.129,0-0.322,0-0.607,0.01c-9.596,0.091-18.797,2.068-27.171,5.607c-8.558,3.621-16.242,8.842-22.695,15.296h0.01 c-1.471,1.47-2.868,3.015-4.21,4.604c-1.333-1.59-2.73-3.134-4.201-4.604c-6.444-6.453-14.136-11.674-22.685-15.296 c-8.374-3.548-17.584-5.524-27.19-5.607c0,0-0.184,0-0.478-0.01h-0.019h-0.091h-0.019h-0.009c0,0,0,0-0.009,0 c-0.01,0-0.01,0-0.019,0c-0.12,0-0.322,0-0.598,0.01c-9.596,0.091-18.806,2.068-27.181,5.607 c-8.548,3.621-16.241,8.842-22.685,15.296c-8.576,8.566-14.974,19.348-18.31,31.399c-1.25-0.074-2.5-0.11-3.76-0.11v-0.01 c0,0-0.092,0-0.221-0.009c-0.027,0.009-0.248,0-0.662,0.019c-9.615,0.073-19.202,2.077-28.136,5.993 c-9.11,3.989-17.548,9.974-24.57,17.851c-6.057,6.765-10.607,14.441-13.623,22.511c-3.023,8.07-4.522,16.555-4.522,25.002 c0,0,0,0.138,0,0.358h0.009c0.038,6.95,1.112,13.871,3.153,20.544c-8.42,3.769-15.976,9.1-22.253,15.636v-0.019 c-6.196,6.434-11.187,14.018-14.643,22.401c-3.456,8.383-5.35,17.575-5.35,27.125c0,0.846,0.019,1.701,0.046,2.547 c0.332,9.458,2.519,18.484,6.186,26.656c1.508,3.355,3.273,6.564,5.258,9.624c-7.455,5.424-13.834,12.244-18.714,20.103 C3.925,289.698,0,302.64,0,316.391c0,9.827,2.004,19.248,5.616,27.806c3.622,8.558,8.852,16.242,15.305,22.695h-0.009 c6.434,6.426,14.092,11.638,22.612,15.258c3.52,1.489,7.188,2.694,10.975,3.613c-1.406,5.635-2.123,11.389-2.133,17.125h-0.009 v0.156v0.008v0.019c0,9.818,2.022,19.625,6.03,28.753c4.007,9.118,10.009,17.566,17.915,24.598 c6.765,6.02,14.422,10.552,22.474,13.558c7.924,2.951,16.242,4.44,24.542,4.476c0.129,0.018,0.239,0.018,0.332,0.018 c0.018,0,0.037,0,0.054,0h0.019c0,0,0,0,0.009,0h0.184v-0.008c6.489-0.01,12.97-0.929,19.238-2.712 c2.299,3.235,4.853,6.278,7.658,9.081v-0.009c6.444,6.462,14.136,11.683,22.685,15.305c8.356,3.53,17.548,5.515,27.117,5.598 c0.202,0.009,0.386,0.019,0.68,0.019h0.009c0.009,0,0.009,0,0.009,0c0.212,0,0.312-0.01,0.312-0.01 c9.707-0.036,19.018-2.031,27.484-5.607c8.549-3.622,16.242-8.842,22.685-15.296c1.471-1.47,2.868-3.015,4.201-4.614 c1.342,1.599,2.739,3.144,4.21,4.614c6.443,6.453,14.137,11.674,22.685,15.296c8.346,3.53,17.538,5.515,27.116,5.598 c0.202,0.009,0.386,0.019,0.671,0.019c0,0,0,0,0.008,0c0.01,0,0.01,0,0.01,0c0.009,0,0.009,0,0.009,0 c0.202,0,0.303-0.01,0.303-0.01c9.707-0.036,19.028-2.031,27.493-5.607c8.548-3.622,16.242-8.842,22.686-15.305v0.009 c2.803-2.803,5.358-5.846,7.657-9.081c6.333,1.792,12.868,2.72,19.431,2.72c0,0,0.009,0,0.019,0c0.037,0,0.045,0,0.073,0 c0.174,0,0.276-0.008,0.284-0.008c8.301-0.046,16.628-1.527,24.57-4.496c8.052-2.996,15.709-7.528,22.474-13.548 c7.905-7.032,13.907-15.48,17.915-24.598c3.971-9.064,5.993-18.779,6.021-28.523h0.009c0-0.147,0-0.212,0-0.212v-0.037 c0-5.8-0.726-11.6-2.141-17.29c3.786-0.919,7.454-2.124,10.975-3.613c8.521-3.621,16.178-8.833,22.612-15.258h-0.009 c6.452-6.452,11.683-14.137,15.305-22.695C509.996,335.638,512,326.218,512,316.391z M248.404,249.556 c-5.24-1.792-10.681-2.702-16.234-2.702c-5.156,0-10.267,0.781-15.221,2.326l-0.193,0.074c-6.793,2.362-13.412,3.548-19.68,3.548 c-11.066,0-20.673-3.667-27.778-10.58c-6.426-6.259-10.102-14.826-10.102-23.512c0.01-7.74,2.85-15.241,8.209-21.675 c2.684-3.217,2.252-8.015-0.956-10.699c-1.36-1.14-3.088-1.765-4.872-1.765c-2.251,0-4.384,0.993-5.827,2.721 c-7.694,9.201-11.756,20.066-11.747,31.409c0,12.758,5.349,25.296,14.679,34.396c9.836,9.615,23.458,14.91,38.414,14.91 c7.904,0,16.159-1.471,24.432-4.33c3.456-1.084,7.032-1.626,10.644-1.626c5.636,0,11.215,1.37,16.234,3.98v65.548h-40.261 c-4.192,0-7.592,3.41-7.592,7.602c0,4.182,3.4,7.592,7.592,7.592h40.261v83.564c0,6.269-1.223,12.354-3.539,17.979 c-0.027,0.056-0.056,0.092-0.083,0.148c-1.784,4.292-4.191,8.254-7.096,11.783c-0.065,0.092-0.138,0.166-0.202,0.239 c-0.423,0.506-0.845,1.002-1.277,1.48c-0.387,0.432-0.791,0.837-1.196,1.25c-0.129,0.138-0.257,0.285-0.395,0.424l-0.01,0.008 c-0.091,0.092-0.184,0.166-0.276,0.258c-0.45,0.45-0.919,0.901-1.388,1.324c-0.266,0.239-0.534,0.468-0.8,0.698 c-0.303,0.266-0.606,0.534-0.918,0.79c-0.46,0.377-0.929,0.735-1.407,1.103c-0.119,0.092-0.238,0.184-0.358,0.276 c-3.016,2.261-6.315,4.154-9.817,5.644c-1.397,0.588-2.822,1.103-4.274,1.562c-0.028,0.01-0.037,0.01-0.056,0.019 c-0.634,0.193-1.268,0.377-1.912,0.542c-0.129,0.036-0.248,0.073-0.368,0.1c-0.55,0.148-1.102,0.258-1.654,0.386 c-0.221,0.046-0.432,0.102-0.653,0.148c-0.469,0.091-0.947,0.166-1.424,0.257c-0.304,0.046-0.598,0.11-0.91,0.147 c-0.422,0.074-0.854,0.111-1.278,0.166c-0.349,0.046-0.708,0.092-1.057,0.129c-0.44,0.046-0.872,0.073-1.314,0.101 c-0.349,0.028-0.698,0.065-1.048,0.083c-0.69,0.036-1.388,0.046-2.087,0.046c-0.102,0-0.202,0.009-0.303,0.009 c-0.111,0-0.23-0.009-0.35-0.009c-0.68,0-1.36-0.01-2.031-0.046c-0.367-0.018-0.726-0.055-1.094-0.083 c-0.413-0.028-0.845-0.055-1.269-0.101c-0.367-0.037-0.726-0.092-1.094-0.129c-0.413-0.054-0.836-0.1-1.25-0.166 c-0.312-0.037-0.625-0.101-0.937-0.156c-0.469-0.082-0.928-0.156-1.388-0.248c-0.23-0.046-0.46-0.11-0.69-0.156 c-0.542-0.12-1.085-0.239-1.618-0.378c-0.128-0.036-0.266-0.073-0.395-0.11c-0.634-0.166-1.258-0.34-1.875-0.533 c-0.036-0.009-0.073-0.019-0.1-0.028c-1.443-0.45-2.859-0.965-4.238-1.553c-3.512-1.489-6.802-3.383-9.826-5.644 c-0.128-0.092-0.248-0.202-0.377-0.295c-0.469-0.358-0.928-0.708-1.379-1.084c-0.34-0.285-0.671-0.579-1.011-0.864 c-0.23-0.202-0.478-0.405-0.708-0.616c-0.561-0.515-1.121-1.048-1.673-1.591c-0.009-0.018-0.019-0.027-0.028-0.036 c-0.79-0.791-1.553-1.617-2.288-2.473c-0.12-0.147-0.248-0.284-0.368-0.432c-2.362-2.812-4.421-5.901-6.095-9.228 c-0.027-0.056-0.073-0.12-0.11-0.185c-3.198-6.434-4.908-13.567-4.908-20.957c0-5.626,1.259-11.738,3.558-17.207 c2.537-6.04,6.287-11.252,10.846-15.057c1.562-1.296,2.519-3.125,2.702-5.147c0.185-2.023-0.432-3.99-1.728-5.552 c-1.443-1.728-3.575-2.72-5.836-2.72c-1.774,0-3.503,0.625-4.863,1.756c-6.425,5.358-11.656,12.574-15.139,20.856 c-3.088,7.381-4.724,15.359-4.734,23.072c0,5.57,0.745,11.085,2.206,16.444c-0.81,0.322-1.637,0.634-2.473,0.91 c-0.212,0.073-0.441,0.148-0.653,0.212c-0.523,0.166-1.038,0.322-1.562,0.469c-0.33,0.092-0.662,0.184-1.001,0.276 c-0.414,0.101-0.828,0.202-1.25,0.294c-0.387,0.102-0.773,0.184-1.158,0.258c-0.377,0.083-0.754,0.147-1.14,0.22 c-0.404,0.074-0.808,0.138-1.223,0.202c-0.386,0.056-0.772,0.11-1.158,0.156c-0.386,0.046-0.781,0.1-1.167,0.147 c-0.469,0.036-0.929,0.073-1.388,0.102c-0.322,0.027-0.634,0.054-0.956,0.073c-0.781,0.037-1.572,0.064-2.362,0.064 c-11.526,0-22.64-4.237-31.262-11.903c-10.038-8.934-15.783-21.767-15.792-35.206c0-0.708,0.01-1.406,0.046-2.104 c0.175-4.026,0.883-8.034,2.096-11.932c0.054-0.174,0.1-0.358,0.166-0.542c0.018-0.083,0.055-0.166,0.082-0.239 c0.194-0.588,0.396-1.186,0.617-1.774c0.009-0.028,0.018-0.045,0.036-0.074c0.303-0.808,0.634-1.608,0.993-2.417 c0.037-0.073,0.074-0.147,0.101-0.22c0.376-0.828,0.772-1.646,1.204-2.473c0.01-0.019,0.019-0.028,0.019-0.028 c1.774-3.401,3.962-6.581,6.544-9.486c2.785-3.134,2.5-7.941-0.634-10.726c-1.388-1.242-3.18-1.921-5.038-1.921 c-2.169,0-4.246,0.938-5.68,2.556c-0.45,0.496-0.882,1.011-1.314,1.526c-0.69,0.12-1.122,0.184-1.48,0.22 c-0.598,0.056-1.361,0.074-3.016,0.074c-0.037,0-0.073,0-0.11,0c-0.008,0-0.018,0-0.027,0c-0.809,0-1.609-0.028-2.409-0.064 c-0.045-0.01-0.101-0.01-0.147-0.019c-0.744-0.037-1.48-0.092-2.206-0.174c-0.11,0-0.23-0.028-0.34-0.037 c-0.671-0.073-1.333-0.156-1.995-0.258c-0.12-0.018-0.23-0.037-0.34-0.055c-0.671-0.111-1.333-0.221-1.986-0.358 c-0.073-0.019-0.138-0.037-0.211-0.056c-0.708-0.147-1.398-0.303-2.087-0.478c-0.01-0.008-0.019-0.008-0.028-0.008 c-2.234-0.58-4.403-1.324-6.508-2.216c-3.492-1.48-6.774-3.383-9.78-5.626c-0.129-0.091-0.248-0.193-0.377-0.294 c-0.469-0.358-0.928-0.708-1.37-1.084c-0.33-0.267-0.652-0.552-0.974-0.837c-0.248-0.202-0.496-0.422-0.735-0.634 c-0.57-0.523-1.13-1.048-1.673-1.59c-0.552-0.552-1.085-1.122-1.608-1.692c-0.111-0.129-0.221-0.258-0.341-0.386 c-0.386-0.442-0.772-0.883-1.14-1.324c-0.312-0.386-0.606-0.772-0.909-1.158c-0.156-0.202-0.322-0.404-0.469-0.607 c-0.424-0.56-0.819-1.121-1.214-1.7c-0.028-0.046-0.054-0.083-0.082-0.12c-1.692-2.509-3.153-5.184-4.339-7.988 c-0.864-2.058-1.59-4.182-2.16-6.37c-0.018-0.073-0.046-0.147-0.064-0.22c-0.156-0.607-0.285-1.214-0.423-1.839 c-0.036-0.147-0.074-0.303-0.102-0.469c-0.11-0.542-0.202-1.094-0.294-1.646c-0.037-0.23-0.092-0.45-0.12-0.68 c-0.074-0.515-0.138-1.03-0.202-1.544c-0.027-0.276-0.064-0.533-0.092-0.808c-0.054-0.534-0.091-1.066-0.12-1.6 c-0.018-0.257-0.054-0.514-0.064-0.772c-0.036-0.781-0.055-1.582-0.055-2.39c0-1.112,0.036-2.224,0.119-3.318 c0.046-0.744,0.138-1.48,0.23-2.216c0.038-0.349,0.065-0.689,0.111-1.03c0.128-0.965,0.303-1.921,0.496-2.867 c0.028-0.111,0.037-0.221,0.056-0.331c0.22-1.011,0.468-2.022,0.753-3.006c0.01-0.046,0.019-0.102,0.028-0.138 c0.284-0.984,0.596-1.948,0.937-2.914c0.027-0.064,0.037-0.12,0.064-0.184c0.322-0.91,0.69-1.792,1.066-2.675 c0.056-0.12,0.092-0.239,0.147-0.349c0.368-0.846,0.781-1.673,1.205-2.491c0.074-0.148,0.138-0.304,0.211-0.451 c0.506-0.955,1.048-1.893,1.618-2.812c0.561-0.901,1.15-1.784,1.756-2.638c3.034-4.209,6.738-7.895,10.957-10.911 c0.083-0.064,0.156-0.128,0.239-0.183c0.147-0.101,0.303-0.193,0.45-0.294c1.599-1.094,3.254-2.106,4.982-2.997l0.019-0.019 c0.054-0.027,0.11-0.055,0.156-0.074c0.579-0.303,1.167-0.579,1.746-0.845c0.322-0.147,0.634-0.294,0.966-0.441 c0.027,0,0.054-0.028,0.082-0.037c5.902-2.565,12.17-3.879,18.706-3.879c10.672,0,20.719,3.484,29.074,10.074 c1.921,2.105,8.089,8.576,17.299,15.093c6.425,4.542,13.026,8.181,19.634,10.801c8.438,3.355,16.896,5.056,25.15,5.056 c4.183,0,7.593-3.41,7.593-7.602c0-4.192-3.41-7.593-7.593-7.593c-6.315,0-12.887-1.341-19.551-3.98 c-9.634-3.824-17.75-9.734-22.86-14.018c-2.904-2.444-5.166-4.614-6.545-6.002c-0.735-0.753-1.305-1.351-1.682-1.765l-0.477-0.533 l-0.267-0.303c-0.12-0.138-0.248-0.267-0.396-0.378l-0.312-0.266c-11.012-8.879-24.873-13.779-39.066-13.779 c-4.319,0-8.658,0.46-12.914,1.37c-0.956-0.827-1.848-1.701-2.721-2.592c-0.322-0.313-0.634-0.634-0.947-0.966 c-0.266-0.294-0.523-0.588-0.791-0.882c-0.23-0.266-0.477-0.542-0.708-0.818c-0.496-0.58-0.974-1.177-1.434-1.784 c-0.092-0.11-0.166-0.22-0.248-0.331c-0.396-0.523-0.781-1.057-1.148-1.599c-0.073-0.101-0.138-0.202-0.212-0.312 c-0.376-0.56-0.744-1.121-1.103-1.709c-0.046-0.074-0.092-0.147-0.129-0.221c-0.376-0.616-0.744-1.241-1.084-1.875 c-0.027-0.046-0.046-0.083-0.073-0.128c-0.359-0.68-0.708-1.361-1.048-2.05c0,0,0-0.019-0.01-0.027 c-2.05-4.293-3.456-8.899-4.137-13.66c-0.008-0.046-0.018-0.092-0.018-0.092c-0.102-0.717-0.166-1.416-0.239-2.104 c-0.01-0.12-0.027-0.239-0.037-0.359c-0.056-0.671-0.092-1.342-0.129-2.022c0-0.129-0.018-0.258-0.018-0.387v-0.009 c-0.019-0.561-0.028-1.122-0.028-1.683c0-0.781,0.019-1.553,0.056-2.325c0.01-0.258,0.037-0.524,0.056-0.781 c0.037-0.506,0.064-1.012,0.11-1.508c0.028-0.312,0.083-0.606,0.11-0.919c0.056-0.46,0.11-0.91,0.174-1.361 c0.038-0.294,0.092-0.588,0.138-0.864c0.083-0.468,0.156-0.937,0.248-1.397c0.045-0.248,0.11-0.496,0.165-0.735 c0.102-0.506,0.212-1.003,0.331-1.499c0.046-0.183,0.101-0.358,0.147-0.542c0.147-0.552,0.295-1.112,0.46-1.664 c0.037-0.101,0.074-0.22,0.11-0.33c0.193-0.617,0.386-1.223,0.606-1.83c0.009-0.046,0.037-0.091,0.046-0.137 c0.239-0.662,0.488-1.324,0.763-1.977l0.009-0.018c0.561-1.379,1.195-2.712,1.884-4.026c0,0,0,0,0.01-0.01 c0.34-0.652,0.698-1.287,1.066-1.912c0.027-0.055,0.055-0.101,0.083-0.147c0.349-0.579,0.708-1.159,1.075-1.728 c0.083-0.119,0.175-0.248,0.258-0.376c0.322-0.478,0.643-0.956,0.984-1.425c0.193-0.276,0.413-0.542,0.616-0.809 c0.239-0.312,0.469-0.634,0.717-0.947c0.404-0.506,0.818-1.002,1.241-1.489c0.064-0.073,0.12-0.148,0.175-0.212 c0.505-0.57,1.02-1.13,1.544-1.682c0.019-0.01,0.028-0.027,0.036-0.037c0.69-0.708,1.398-1.388,2.124-2.05 c0.193-0.174,0.386-0.349,0.588-0.523c1.544-1.361,3.171-2.638,4.891-3.797c0.11-0.064,0.22-0.138,0.33-0.211 c1.829-1.213,3.75-2.298,5.754-3.254c0.019-0.009,0.037-0.019,0.046-0.019c3.098-1.47,6.388-2.61,9.817-3.374 c0.028-0.009,0.054-0.018,0.083-0.027c2.794-0.616,5.671-0.993,8.585-1.094c0.533-0.028,1.057-0.028,1.682-0.028h0.009 c2.427,0,4.863,0.184,7.243,0.552c0.395,0.056,0.781,0.092,1.167,0.092c3.778,0,6.922-2.712,7.51-6.444 c0.634-4.136-2.216-8.024-6.352-8.668c-3.162-0.486-6.37-0.735-9.569-0.735c-0.524,0-1.057,0.01-1.581,0.028 c-0.34-0.579-0.652-1.177-0.956-1.765c-0.34-0.633-0.662-1.268-0.965-1.912c-0.11-0.239-0.22-0.469-0.322-0.717 c-0.313-0.689-0.616-1.37-0.892-2.068c-0.083-0.211-0.166-0.432-0.239-0.643c-0.276-0.717-0.533-1.434-0.772-2.17 c-0.074-0.212-0.138-0.441-0.202-0.652c-0.22-0.726-0.432-1.444-0.616-2.17c-0.074-0.266-0.129-0.515-0.193-0.781 c-0.156-0.69-0.322-1.379-0.451-2.077c-0.074-0.349-0.12-0.69-0.184-1.03c-0.102-0.625-0.202-1.241-0.285-1.866 c-0.064-0.506-0.11-1.012-0.156-1.527c-0.046-0.469-0.101-0.938-0.129-1.415c-0.064-0.984-0.101-1.976-0.101-2.978v-0.019 c0-10.856,3.74-21.316,10.562-29.69c0.074-0.101,0.156-0.193,0.238-0.285c0.377-0.459,0.763-0.919,1.168-1.37 c0.248-0.276,0.506-0.533,0.753-0.799c0.322-0.349,0.644-0.699,0.975-1.03c8.806-8.861,20.847-13.898,33.422-13.908 c0.019,0,0.055,0,0.082,0c0.81,0.01,1.609,0.028,2.418,0.074c0.257,0.018,0.515,0.037,0.763,0.054 c0.615,0.046,1.241,0.102,1.857,0.166c0.229,0.027,0.459,0.055,0.698,0.083c0.809,0.1,1.628,0.22,2.436,0.358 c0.009,0.008,0.027,0.008,0.046,0.008c0.864,0.156,1.728,0.341,2.592,0.552c7.409,1.765,14.321,5.314,20.148,10.406 c1.618,1.838,8.622,9.624,17.695,17.668c6.112,5.404,11.931,9.844,17.299,13.19c3.374,2.096,6.498,3.732,9.54,5.001 c3.603,1.498,6.913,2.399,10.12,2.748c0.285,0.037,0.561,0.055,0.846,0.055c3.879,0,7.114-2.905,7.546-6.765 c0.221-2.013-0.349-3.998-1.617-5.58c-1.269-1.59-3.08-2.583-5.102-2.803c-1.701-0.184-3.759-0.773-5.966-1.692 c-3.806-1.572-8.356-4.284-13.163-7.84c-7.151-5.286-13.88-11.638-18.264-16.04c-2.49-2.501-4.513-4.652-5.763-6.012 c-0.68-0.744-1.213-1.333-1.572-1.728l-0.395-0.459l-2.28,2.022l2.17-2.141l-0.193-0.221l-0.257-0.266l-0.231-0.202 c-4.641-4.145-9.835-7.556-15.469-10.138c0.386-4.183,1.323-8.208,2.73-12.004c0.046-0.12,0.092-0.23,0.138-0.349 c0.193-0.515,0.395-1.02,0.606-1.526c0.083-0.193,0.175-0.386,0.258-0.58c0.184-0.423,0.367-0.846,0.56-1.25 c0.12-0.257,0.248-0.496,0.368-0.745c0.175-0.358,0.349-0.708,0.533-1.065c0.148-0.276,0.312-0.552,0.469-0.837 c0.166-0.303,0.331-0.616,0.515-0.92c0.175-0.313,0.368-0.606,0.552-0.91c0.166-0.266,0.322-0.542,0.497-0.808 c0.211-0.33,0.432-0.652,0.652-0.984c0.156-0.23,0.312-0.46,0.478-0.689c0.248-0.358,0.515-0.717,0.781-1.076 c0.138-0.184,0.266-0.367,0.405-0.552c0.321-0.404,0.643-0.809,0.965-1.194c0.11-0.129,0.202-0.258,0.303-0.386 c0.395-0.46,0.791-0.901,1.186-1.352c0.056-0.056,0.11-0.12,0.166-0.175c0.459-0.506,0.928-1.002,1.416-1.489 c0.552-0.542,1.112-1.075,1.682-1.599c0.166-0.147,0.34-0.285,0.506-0.432c0.395-0.358,0.799-0.708,1.213-1.057 c0.386-0.313,0.791-0.625,1.194-0.928c0.185-0.147,0.378-0.303,0.571-0.451c0.551-0.413,1.121-0.808,1.691-1.204 c0.046-0.028,0.083-0.064,0.129-0.083c2.5-1.692,5.175-3.152,7.988-4.338c1.351-0.57,2.748-1.085,4.164-1.526 c0.064-0.028,0.12-0.046,0.174-0.065c0.607-0.184,1.223-0.358,1.83-0.523c0.147-0.037,0.294-0.074,0.45-0.12 c0.524-0.138,1.057-0.248,1.591-0.368c0.238-0.046,0.468-0.11,0.708-0.156c0.459-0.092,0.919-0.166,1.388-0.248 c0.312-0.054,0.625-0.12,0.937-0.165c0.414-0.065,0.837-0.102,1.25-0.156c0.368-0.046,0.727-0.102,1.094-0.138 c0.424-0.037,0.864-0.064,1.288-0.092c0.358-0.027,0.708-0.064,1.075-0.082c0.69-0.036,1.379-0.046,2.078-0.055 c0.102,0,0.202,0,0.304,0c0.119,0,0.23,0,0.349,0.009c0.68,0,1.36,0.01,2.041,0.046c0.367,0.018,0.735,0.055,1.094,0.082 c0.423,0.028,0.845,0.056,1.26,0.092c0.376,0.046,0.744,0.092,1.121,0.138c0.405,0.054,0.818,0.091,1.223,0.156 c0.322,0.045,0.643,0.11,0.956,0.174c0.46,0.073,0.92,0.147,1.37,0.239c0.238,0.046,0.477,0.11,0.726,0.166 c0.524,0.11,1.057,0.23,1.581,0.359c0.147,0.046,0.294,0.083,0.441,0.12c0.616,0.165,1.222,0.34,1.82,0.523 c0.055,0.019,0.12,0.037,0.174,0.065c1.425,0.44,2.822,0.955,4.173,1.526c2.813,1.194,5.488,2.647,7.997,4.338 c0.027,0.019,0.055,0.036,0.083,0.065c0.588,0.394,1.167,0.799,1.738,1.231c0.174,0.129,0.358,0.276,0.532,0.414 c0.413,0.321,0.828,0.634,1.223,0.965c0.395,0.322,0.781,0.662,1.167,1.002c0.184,0.166,0.376,0.312,0.552,0.478 c0.57,0.524,1.13,1.057,1.682,1.599c0.488,0.488,0.956,0.984,1.425,1.489c0.009,0.009,0.009,0.019,0.018,0.028 c0.451,0.486,0.892,0.992,1.315,1.498c0.091,0.11,0.174,0.22,0.257,0.321c0.349,0.414,0.69,0.837,1.02,1.26 c0.138,0.184,0.258,0.368,0.395,0.542c0.266,0.359,0.534,0.717,0.791,1.085c0.166,0.23,0.322,0.469,0.478,0.698 c0.22,0.322,0.442,0.644,0.652,0.974c0.175,0.266,0.34,0.542,0.506,0.818c0.184,0.294,0.368,0.598,0.542,0.901 c0.184,0.304,0.349,0.616,0.524,0.937c0.156,0.268,0.312,0.543,0.46,0.819c0.184,0.358,0.358,0.726,0.542,1.084 c0.12,0.239,0.24,0.478,0.359,0.726c0.193,0.414,0.378,0.837,0.561,1.269c0.083,0.183,0.175,0.368,0.257,0.569 c0.212,0.497,0.414,1.012,0.616,1.527c0.037,0.12,0.083,0.23,0.129,0.34c1.406,3.796,2.344,7.822,2.73,12.014 c-5.634,2.583-10.828,5.984-15.479,10.129c-3.126,2.794-3.392,7.611-0.607,10.737c1.443,1.609,3.502,2.537,5.671,2.537 c1.866,0,3.659-0.69,5.056-1.93c5.855-5.231,12.85-8.861,20.36-10.663c1.72-0.405,3.456-0.717,5.194-0.937 c0.202-0.028,0.405-0.046,0.607-0.065c0.643-0.082,1.295-0.137,1.948-0.174c0.23-0.019,0.478-0.037,0.717-0.056 c0.808-0.037,1.626-0.073,2.444-0.073c0.027,0,0.056,0,0.074,0c12.575,0.009,24.625,5.038,33.422,13.898 c0.588,0.588,1.167,1.204,1.738,1.838c0.469,0.532,0.928,1.066,1.369,1.599c0.414,0.515,0.818,1.03,1.204,1.554 c0.028,0.036,0.056,0.064,0.083,0.1c0.359,0.488,0.698,0.974,1.039,1.471c0.055,0.082,0.12,0.165,0.174,0.248 c0.303,0.442,0.579,0.883,0.854,1.333c0.102,0.147,0.193,0.285,0.285,0.442c0.23,0.376,0.451,0.762,0.671,1.158 c0.12,0.221,0.257,0.442,0.376,0.663c0.175,0.312,0.331,0.634,0.497,0.955c0.156,0.295,0.322,0.607,0.469,0.91 c0.119,0.248,0.239,0.505,0.358,0.754c0.165,0.376,0.349,0.754,0.506,1.14c0.091,0.211,0.174,0.423,0.266,0.634 c0.174,0.423,0.349,0.845,0.505,1.268c0.074,0.202,0.138,0.405,0.22,0.607c0.156,0.44,0.304,0.872,0.451,1.314 c0.064,0.202,0.12,0.405,0.184,0.607c0.138,0.441,0.276,0.882,0.395,1.333c0.065,0.239,0.12,0.478,0.184,0.716 c0.111,0.405,0.212,0.81,0.304,1.223c0.074,0.331,0.147,0.671,0.211,1.011c0.065,0.314,0.129,0.626,0.193,0.947 c0.083,0.488,0.156,0.984,0.23,1.481c0.027,0.156,0.055,0.33,0.082,0.496c0.276,2.031,0.414,4.099,0.414,6.205 c0,0.965-0.037,1.93-0.101,2.905c-0.009,0.211-0.028,0.422-0.038,0.643c-0.073,0.92-0.165,1.848-0.294,2.777 c-0.027,0.211-0.064,0.422-0.092,0.633c-0.11,0.773-0.239,1.535-0.395,2.299c-0.045,0.248-0.091,0.496-0.137,0.744 c-0.193,0.855-0.405,1.709-0.625,2.564c-0.083,0.322-0.175,0.644-0.266,0.966c-0.221,0.754-0.451,1.498-0.708,2.243 c-0.102,0.312-0.221,0.625-0.322,0.938c-0.258,0.716-0.534,1.416-0.818,2.114c-0.12,0.294-0.239,0.588-0.368,0.872 c-0.358,0.837-0.744,1.683-1.149,2.51c-0.11,0.22-0.23,0.44-0.349,0.67c-0.404,0.8-0.845,1.609-1.296,2.399 c-1.14,1.967-2.39,3.879-3.786,5.717c-0.184,0.212-0.359,0.442-0.515,0.671c-1.406,1.793-2.878,3.475-4.375,4.982 c-2.74,2.767-6.609,5.599-11.177,8.199c-6.839,3.888-14.284,6.756-19.332,8.466c-2.876,0.984-5.285,1.701-6.792,2.133 c-0.818,0.22-1.462,0.405-1.903,0.515l-0.588,0.147c-4.072,0.993-6.581,5.111-5.598,9.174c0.828,3.429,3.861,5.809,7.381,5.809 c0.606,0,1.213-0.073,1.802-0.212c0.799-0.193,8.107-2.022,17.317-5.644c5.589-2.205,10.709-4.623,15.213-7.179 c5.929-3.364,10.654-6.875,14.468-10.717c1.205-1.205,2.381-2.492,3.521-3.824c1.158,0.019,2.325,0.092,3.493,0.185 c0.045,0.018,0.1,0.027,0.156,0.027c0.606,0.054,1.029,0.091,1.277,0.11c0.019,0.01,0.037,0.01,0.046,0.01 c0.074,0,0.138,0.018,0.166,0.018h0.009h0.009c0.248,0.037,0.497,0.074,0.744,0.111c0.423,0.064,0.855,0.11,1.278,0.184 c7.905,1.36,15.259,4.826,21.316,10.01c0.064,0.054,0.12,0.11,0.184,0.164c0.378,0.322,0.744,0.662,1.112,1.002 c0.129,0.12,0.266,0.239,0.405,0.359c0.276,0.266,0.552,0.552,0.828,0.836c0.202,0.193,0.404,0.387,0.597,0.598 c0.156,0.156,0.294,0.322,0.441,0.478c0.303,0.322,0.607,0.644,0.901,0.974v0.009c0.781,0.882,1.518,1.802,2.224,2.748 c0.074,0.11,0.157,0.211,0.248,0.322c0.258,0.358,0.505,0.735,0.763,1.094c0.12,0.174,0.248,0.359,0.367,0.542 c0.212,0.322,0.414,0.643,0.625,0.974c0.148,0.239,0.294,0.469,0.441,0.698c0.175,0.295,0.331,0.588,0.506,0.874 c0.156,0.285,0.331,0.57,0.488,0.855c0.138,0.258,0.257,0.515,0.395,0.772c0.166,0.332,0.349,0.663,0.515,1.002 c0.101,0.212,0.193,0.432,0.294,0.652c0.184,0.386,0.368,0.773,0.534,1.159c0.073,0.174,0.137,0.349,0.22,0.523 c0.174,0.442,0.359,0.883,0.533,1.333c0.046,0.129,0.092,0.276,0.148,0.405c0.174,0.488,0.349,0.974,0.514,1.471 c0.038,0.101,0.065,0.202,0.092,0.312c0.175,0.524,0.34,1.057,0.488,1.59c0.018,0.083,0.037,0.156,0.054,0.239 c0.156,0.561,0.304,1.113,0.432,1.682c0.019,0.074,0.028,0.147,0.046,0.22c0.129,0.57,0.248,1.149,0.358,1.72 c0.018,0.101,0.027,0.193,0.046,0.284c0.092,0.552,0.193,1.112,0.266,1.674c0.019,0.147,0.028,0.294,0.056,0.432 c0.064,0.515,0.12,1.029,0.174,1.544c0.019,0.248,0.036,0.497,0.046,0.744c0.037,0.424,0.073,0.837,0.092,1.25 c0.028,0.671,0.045,1.342,0.045,2.023c0,0.91-0.036,1.829-0.091,2.748c-0.056,0.91-0.139,1.838-0.249,2.757 c-0.01,0.038-0.018,0.065-0.018,0.102c-0.083,0.698-0.194,1.397-0.312,2.077c-0.019,0.11-0.046,0.212-0.065,0.312 c-0.11,0.644-0.239,1.278-0.386,1.912c0,0.028-0.01,0.055-0.019,0.073c-1.829,7.924-5.818,15.204-11.49,21.004 c-0.054,0.055-0.101,0.101-0.156,0.156c-0.432,0.442-0.882,0.882-1.341,1.306c-0.111,0.101-0.221,0.201-0.341,0.312 c-1.038,0.938-2.114,1.847-3.244,2.702c-4.807-1.168-9.706-1.756-14.606-1.756c-14.183,0-28.044,4.9-39.056,13.779 c-3.254,2.629-3.769,7.427-1.14,10.681c1.452,1.802,3.604,2.831,5.919,2.831c1.728,0,3.42-0.598,4.771-1.683 c8.438-6.811,18.65-10.414,29.515-10.414c3.595,0,7.161,0.404,10.626,1.213c1.324,1.03,2.997,1.618,4.698,1.618 c0.211,0,0.423-0.01,0.643-0.027c1.967,0.707,3.833,1.516,5.561,2.408c0.037,0.019,0.074,0.037,0.102,0.056l0.027,0.008v0.009 l0.019,0.01c1.728,0.891,3.382,1.902,4.982,2.997c0.147,0.101,0.303,0.193,0.45,0.294c0.083,0.055,0.156,0.129,0.239,0.183 c5.074,3.632,9.413,8.236,12.713,13.55c0.569,0.92,1.103,1.857,1.608,2.812c0.101,0.184,0.184,0.378,0.276,0.57 c0.404,0.781,0.79,1.562,1.149,2.353c0.054,0.137,0.11,0.284,0.165,0.413c0.368,0.874,0.727,1.738,1.048,2.629 c0.027,0.074,0.046,0.156,0.074,0.23c0.34,0.947,0.652,1.894,0.928,2.868c0.009,0.056,0.019,0.11,0.037,0.166 c0.276,0.984,0.524,1.977,0.744,2.978c0.019,0.12,0.037,0.23,0.056,0.349c0.193,0.938,0.367,1.894,0.496,2.849 c0.046,0.341,0.074,0.68,0.11,1.03c0.092,0.735,0.184,1.471,0.23,2.216c0.083,1.094,0.12,2.206,0.12,3.318 C487.688,317.199,487.67,318,487.633,318.781z"></path> </g> </g></svg>
